<svg xmlns="http://www.w3.org/2000/svg" viewBox="0 0 48 48" role="img" aria-labelledby="c3-icon-title">
  <title id="c3-icon-title">getgrade Icon</title>
  <rect fill="#1B1B18" x="0" y="0" width="48" height="48" rx="11" ry="11"/>
  <path d="M12,32 A14,14 0 1,1 26,32 L26,26 L20,26 L20,32 A8,8 0 1,0 12,32 Z" fill="#D4A853"/>
  <path d="M24,34 A10,10 0 1,1 34,34 L34,30 L30,30 L30,34 A6,6 0 1,0 24,34 Z" fill="#FAFAF7" opacity="0.85"/>
  <polygon points="24,6 30,9 24,12 18,9" fill="#D4A853"/>
  <line x1="24" y1="12" x2="24" y2="16" stroke="#D4A853" stroke-width="1.2" stroke-linecap="round"/>
</svg>